<?xml version="1.0" standalone="no"?><svg xmlns="http://www.w3.org/2000/svg" viewBox="0 0 1440 320"><path fill="#a2d9ff" fill-opacity="1" d="M0,32L34.3,53.3C68.6,75,137,117,206,144C274.3,171,343,181,411,176C480,171,549,149,617,133.3C685.7,117,754,107,823,90.7C891.4,75,960,53,1029,74.7C1097.1,96,1166,160,1234,165.3C1302.9,171,1371,117,1406,90.7L1440,64L1440,320L1405.7,320C1371.4,320,1303,320,1234,320C1165.7,320,1097,320,1029,320C960,320,891,320,823,320C754.3,320,686,320,617,320C548.6,320,480,320,411,320C342.9,320,274,320,206,320C137.1,320,69,320,34,320L0,320Z"></path></svg>